<?xml version="1.0" encoding="utf-8"?>
<!-- Generator: Adobe Illustrator 17.0.0, SVG Export Plug-In . SVG Version: 6.00 Build 0)  -->
<!DOCTYPE svg PUBLIC "-//W3C//DTD SVG 1.1//EN" "http://www.w3.org/Graphics/SVG/1.1/DTD/svg11.dtd">
<svg version="1.1" id="Layer_1" xmlns="http://www.w3.org/2000/svg" xmlns:xlink="http://www.w3.org/1999/xlink" x="0px" y="0px"
	 width="78px" height="55px" viewBox="0 0 78 55" enable-background="new 0 0 78 55" xml:space="preserve">
<path fill="#32364E" d="M78,50c0,2.761-2.239,5-5,5H5c-2.761,0-5-2.239-5-5V5c0-2.761,2.239-5,5-5h68c2.761,0,5,2.239,5,5V50z"/>
<rect x="7.989" y="39.519" fill="none" width="42.49" height="10.893"/>
<g>
	<g>
		<path fill="#FFFFFF" d="M56.796,23.064c-0.434-0.901-1.082-1.589-2.071-1.857c-1.517-0.421-2.967-0.274-4.289,0.655
			c-0.127,0.087-0.248,0.168-0.434,0.294c-0.374-0.988-1.176-0.968-2.004-0.901c-0.12,0.007-0.241,0-0.368,0h-2.444v18.91
			c0,0.154,0.005,0.315,0.012,0.462h5.105v-5.05c0.761,0.074,1.483,0.207,2.197,0.2c2.464-0.027,3.942-1.156,4.675-3.514
			c0.034-0.099,0.06-0.207,0.087-0.313c0.487-1.898,0.48-3.822,0.315-5.753C57.483,25.109,57.276,24.053,56.796,23.064
			L56.796,23.064z M52.319,31.007c-0.233,1.122-0.901,1.436-2.03,1.021v-0.947c0-1.837,0.014-3.675-0.007-5.512
			c0-0.32,0.108-0.481,0.393-0.575c0.161-0.053,0.315-0.12,0.482-0.168c0.694-0.2,1.149,0.027,1.241,0.742
			C52.64,27.38,52.693,29.203,52.319,31.007L52.319,31.007z M36.702,21.655c-0.02,1.269-0.014,2.531-0.014,3.827
			c-0.568-0.074-1.069-0.147-1.577-0.193c-0.255-0.027-0.522-0.007-0.781,0.027c-1.055,0.14-1.202,0.306-1.202,1.349v8.824h-5.07
			V21.287c0.101-0.014,0.221-0.033,0.334-0.033c1.096-0.007,2.197,0.007,3.294-0.014c0.287-0.007,0.455,0.087,0.575,0.347
			c0.154,0.333,0.354,0.648,0.54,0.982c0.935-1.489,1.878-1.871,3.475-1.443C36.574,21.207,36.702,21.322,36.702,21.655
			L36.702,21.655z M43.061,16.945c0,1.416-1.149,2.565-2.572,2.565h-0.005c-0.202,0.007-0.416-0.021-0.622-0.073
			c-0.453-0.113-0.848-0.34-1.161-0.648c-0.482-0.467-0.782-1.122-0.782-1.843c0-1.289,0.947-2.358,2.184-2.538
			c0.027-0.014,0.06-0.027,0.087-0.034h0.561c0.014,0.007,0.019,0.014,0.033,0.021C42.065,14.541,43.061,15.624,43.061,16.945
			L43.061,16.945z M37.937,21.274h5.05v14.223h-5.05V21.274z M70.769,25.61c-0.173-1.271-0.667-2.445-1.642-3.348
			c-1.19-1.101-2.652-1.329-4.19-1.262c-2.979,0.133-4.769,1.464-5.498,4.135c-0.593,2.172-0.593,4.376-0.012,6.553
			c0.554,2.085,1.883,3.42,4.048,3.854c1.924,0.388,3.834,0.301,5.73-0.173c1.096-0.282,1.096-0.275,1.096-1.397v-2.618
			c-0.474,0.087-0.882,0.161-1.289,0.227c-1.202,0.2-2.404,0.453-3.627,0.267c-0.935-0.147-1.349-0.775-1.216-1.777h6.941
			C71.003,28.529,70.964,27.059,70.769,25.61L70.769,25.61z M64.07,27.273c0.067-0.795,0.12-1.563,0.219-2.317
			c0.027-0.214,0.147-0.448,0.294-0.616c0.462-0.54,1.31-0.393,1.457,0.301c0.173,0.848,0.2,1.724,0.301,2.632
			C65.512,27.273,64.838,27.273,64.07,27.273L64.07,27.273z M24.243,24.969c-0.005,1.89-0.005,3.774,0,5.657
			c0,0.154-0.005,0.315,0.014,0.469c0.074,0.628,0.308,0.841,0.949,0.8c0.554-0.032,1.101-0.113,1.703-0.18v3.62
			c-1.749,0.322-3.507,0.694-5.298,0.26c-1.575-0.38-2.451-1.683-2.471-3.641c-0.02-2.303-0.007-4.602-0.007-6.907v-0.534h-1.837
			v-3.247h1.83c0.195-0.954,0.388-1.869,0.554-2.791c0.055-0.308,0.161-0.475,0.496-0.549c1.336-0.299,2.664-0.641,4.048-0.968
			v4.275h2.712c-0.227,1.115-0.448,2.17-0.676,3.259h-1.99C24.257,24.675,24.243,24.822,24.243,24.969L24.243,24.969z
			 M16.683,31.589c-0.268,2.565-1.705,3.901-4.282,4.135c-1.678,0.152-3.3-0.067-4.898-0.522c-0.14-0.034-0.34-0.207-0.34-0.322
			c-0.026-1.122-0.02-2.25-0.02-3.42c0.823,0.168,1.59,0.361,2.372,0.482c0.48,0.08,0.988,0.099,1.471,0.026
			c0.253-0.033,0.554-0.281,0.674-0.515c0.174-0.327,0.014-0.688-0.301-0.888c-0.421-0.253-0.874-0.462-1.301-0.694
			c-0.501-0.268-1.029-0.508-1.491-0.836c-0.915-0.646-1.448-1.542-1.589-2.664c-0.014-0.101-0.06-0.2-0.087-0.308v-0.835
			c0.074-0.374,0.127-0.756,0.227-1.122c0.487-1.737,1.756-2.592,3.427-2.933c1.777-0.361,3.533-0.2,5.257,0.354
			c0.274,0.087,0.381,0.214,0.374,0.52c-0.021,1.05-0.007,2.098-0.007,3.135c-0.882-0.161-1.724-0.335-2.572-0.462
			c-0.347-0.046-0.729-0.074-1.055,0.014c-0.241,0.067-0.561,0.313-0.595,0.52c-0.039,0.248,0.12,0.629,0.322,0.783
			c0.373,0.286,0.841,0.44,1.262,0.667c0.54,0.287,1.122,0.542,1.616,0.896C16.501,28.589,16.849,30.019,16.683,31.589
			L16.683,31.589z"/>
	</g>
</g>
<image overflow="visible" width="1920" height="1080" xlink:href="3C1666B9.jpg"  transform="matrix(1 0 0 1 359.1284 711.0711)">
</image>
</svg>
