<?xml version="1.0" encoding="utf-8"?>
<!-- Generator: Adobe Illustrator 17.0.0, SVG Export Plug-In . SVG Version: 6.00 Build 0)  -->
<!DOCTYPE svg PUBLIC "-//W3C//DTD SVG 1.1//EN" "http://www.w3.org/Graphics/SVG/1.1/DTD/svg11.dtd">
<svg version="1.1" id="Layer_1" xmlns="http://www.w3.org/2000/svg" xmlns:xlink="http://www.w3.org/1999/xlink" x="0px" y="0px"
	 width="46.294px" height="10.167px" viewBox="21.438 3.5 46.294 10.167" enable-background="new 21.438 3.5 46.294 10.167"
	 xml:space="preserve">
<path fill="#6772E5" d="M48.295,7.325c0.441,0,1.001,0.135,1.443,0.373V6.332c-0.481-0.192-0.961-0.265-1.442-0.265
	c-1.177,0-1.961,0.615-1.961,1.642c0,1.606,2.205,1.345,2.205,2.037c0,0.268-0.233,0.355-0.556,0.355
	c-0.481,0-1.101-0.199-1.588-0.463v1.385c0.54,0.232,1.086,0.329,1.586,0.329c1.206,0,2.037-0.596,2.037-1.64
	c0-1.73-2.218-1.419-2.218-2.072C47.802,7.413,47.991,7.325,48.295,7.325z"/>
<path fill="#6772E5" d="M52.929,6.163h-1.101l-0.001-1.26L50.41,5.205l-0.007,4.654c0,0.859,0.646,1.493,1.507,1.493
	c0.474,0,0.825-0.086,1.018-0.192V9.979c-0.185,0.074-1.101,0.34-1.101-0.514V7.4h1.101V6.163z"/>
<path fill="#6772E5" d="M56.043,6.164c-0.193-0.069-0.871-0.196-1.211,0.428l-0.091-0.429h-1.254v5.084h1.45V7.801
	c0.343-0.45,0.922-0.363,1.106-0.303V6.164z"/>
<polygon fill="#6772E5" points="57.946,4.23 56.49,4.54 56.49,5.721 57.946,5.412 "/>
<rect x="56.49" y="6.163" fill="#6772E5" width="1.456" height="5.084"/>
<path fill="#6772E5" d="M61.075,6.067c-0.569,0-0.936,0.268-1.136,0.455l-0.076-0.358h-1.277l0.001,6.771l1.45-0.309l0.003-1.642
	c0.208,0.153,0.519,0.367,1.026,0.367c1.038,0,1.987-0.835,1.987-2.678C63.054,6.984,62.094,6.067,61.075,6.067z"/>
<path fill="#6772E5" d="M65.635,6.067c-1.38,0-2.22,1.173-2.22,2.651c0,1.749,0.99,2.634,2.403,2.634
	c0.693,0,1.214-0.157,1.608-0.376V9.807c-0.395,0.199-0.849,0.321-1.425,0.321c-0.566,0-1.064-0.2-1.129-0.88h2.84
	c0.007-0.078,0.019-0.382,0.019-0.523C67.732,7.239,67.013,6.067,65.635,6.067z"/>
<path fill="#FFFFFF" d="M65.626,7.249c0.356,0,0.734,0.274,0.734,0.927h-1.5C64.86,7.523,65.263,7.249,65.626,7.249z"/>
<path fill="#FFFFFF" d="M60.729,10.07c-0.34,0-0.543-0.123-0.684-0.275l-0.009-2.155c0.151-0.166,0.36-0.288,0.693-0.288
	c0.531,0,0.896,0.595,0.896,1.353C61.625,9.486,61.265,10.07,60.729,10.07z"/>
<g>
	<g>
		<path fill="#8E8E8E" d="M23.455,7.868c0,0.298-0.098,0.527-0.293,0.686s-0.473,0.238-0.834,0.238h-0.297V9.86h-0.467V7.005h0.822
			c0.357,0,0.624,0.073,0.802,0.219S23.455,7.584,23.455,7.868z M22.031,8.399h0.248c0.24,0,0.416-0.042,0.527-0.125
			s0.168-0.213,0.168-0.391c0-0.164-0.05-0.287-0.15-0.367s-0.256-0.121-0.469-0.121h-0.324V8.399z"/>
		<path fill="#8E8E8E" d="M25.893,8.776c0,0.353-0.09,0.628-0.271,0.826s-0.433,0.297-0.756,0.297c-0.202,0-0.38-0.045-0.535-0.137
			s-0.274-0.222-0.357-0.393s-0.125-0.369-0.125-0.594c0-0.35,0.09-0.624,0.27-0.82s0.433-0.295,0.76-0.295
			c0.313,0,0.56,0.101,0.742,0.302S25.893,8.435,25.893,8.776z M24.32,8.776c0,0.499,0.184,0.748,0.553,0.748
			c0.365,0,0.547-0.25,0.547-0.748c0-0.494-0.184-0.74-0.551-0.74c-0.193,0-0.333,0.064-0.419,0.191S24.32,8.538,24.32,8.776z"/>
		<path fill="#8E8E8E" d="M28.191,9.86l-0.279-1.008c-0.034-0.107-0.095-0.355-0.184-0.744h-0.018
			c-0.076,0.352-0.135,0.601-0.18,0.748L27.244,9.86h-0.508L26.131,7.7H26.6l0.275,1.064c0.063,0.263,0.107,0.488,0.133,0.676h0.012
			c0.013-0.095,0.033-0.204,0.06-0.327s0.05-0.215,0.069-0.276L27.477,7.7h0.504l0.318,1.137c0.02,0.064,0.044,0.162,0.073,0.293
			s0.046,0.234,0.052,0.307h0.016c0.02-0.16,0.065-0.384,0.137-0.672L28.855,7.7h0.461l-0.609,2.16H28.191z"/>
		<path fill="#8E8E8E" d="M30.631,9.899c-0.336,0-0.599-0.098-0.788-0.294s-0.284-0.466-0.284-0.81c0-0.353,0.088-0.63,0.264-0.832
			s0.417-0.303,0.725-0.303c0.285,0,0.51,0.086,0.676,0.26s0.248,0.412,0.248,0.715v0.248h-1.439
			c0.006,0.209,0.063,0.371,0.17,0.483s0.257,0.169,0.451,0.169c0.127,0,0.247-0.012,0.356-0.036s0.228-0.064,0.354-0.12v0.373
			c-0.112,0.053-0.225,0.091-0.34,0.113S30.778,9.899,30.631,9.899z M30.547,8.009c-0.146,0-0.263,0.046-0.351,0.139
			s-0.14,0.227-0.157,0.404h0.98c-0.002-0.178-0.045-0.313-0.129-0.405S30.693,8.009,30.547,8.009z"/>
		<path fill="#8E8E8E" d="M33.088,7.661c0.092,0,0.168,0.006,0.229,0.02l-0.045,0.428c-0.065-0.016-0.133-0.023-0.203-0.023
			c-0.184,0-0.333,0.06-0.446,0.18s-0.171,0.275-0.171,0.467V9.86h-0.459V7.7h0.359l0.061,0.381h0.023
			c0.072-0.129,0.165-0.231,0.28-0.307S32.955,7.661,33.088,7.661z"/>
		<path fill="#8E8E8E" d="M34.66,9.899c-0.336,0-0.599-0.098-0.788-0.294s-0.284-0.466-0.284-0.81c0-0.353,0.088-0.63,0.264-0.832
			s0.417-0.303,0.725-0.303c0.285,0,0.51,0.086,0.676,0.26S35.5,8.333,35.5,8.636v0.248h-1.439c0.006,0.209,0.063,0.371,0.17,0.483
			s0.257,0.169,0.451,0.169c0.127,0,0.247-0.012,0.356-0.036s0.228-0.064,0.354-0.12v0.373c-0.112,0.053-0.225,0.091-0.34,0.113
			S34.807,9.899,34.66,9.899z M34.576,8.009c-0.146,0-0.263,0.046-0.351,0.139s-0.14,0.227-0.157,0.404h0.98
			c-0.002-0.178-0.045-0.313-0.129-0.405S34.722,8.009,34.576,8.009z"/>
		<path fill="#8E8E8E" d="M36.75,9.899c-0.27,0-0.48-0.098-0.631-0.293s-0.227-0.469-0.227-0.822c0-0.354,0.077-0.63,0.229-0.827
			s0.365-0.296,0.636-0.296c0.284,0,0.5,0.105,0.648,0.314h0.023c-0.022-0.155-0.033-0.277-0.033-0.367V6.821h0.461V9.86h-0.359
			l-0.08-0.283h-0.021C37.25,9.792,37.034,9.899,36.75,9.899z M36.873,9.528c0.189,0,0.326-0.053,0.412-0.159
			s0.13-0.278,0.133-0.517V8.788c0-0.272-0.044-0.465-0.133-0.58s-0.227-0.172-0.416-0.172c-0.162,0-0.286,0.065-0.373,0.196
			s-0.131,0.317-0.131,0.56c0,0.24,0.042,0.422,0.127,0.548S36.704,9.528,36.873,9.528z"/>
		<path fill="#8E8E8E" d="M40.656,7.661c0.27,0,0.479,0.098,0.63,0.293s0.226,0.469,0.226,0.822c0,0.354-0.076,0.63-0.229,0.827
			s-0.364,0.296-0.635,0.296c-0.273,0-0.486-0.098-0.637-0.295H39.98L39.896,9.86h-0.344V6.821h0.459v0.723
			c0,0.053-0.002,0.133-0.008,0.238s-0.009,0.172-0.012,0.201h0.02C40.158,7.769,40.373,7.661,40.656,7.661z M40.537,8.036
			c-0.185,0-0.318,0.054-0.399,0.163s-0.124,0.291-0.126,0.546v0.031c0,0.263,0.042,0.454,0.125,0.571s0.219,0.177,0.408,0.177
			c0.163,0,0.286-0.064,0.37-0.193s0.126-0.315,0.126-0.559C41.041,8.282,40.873,8.036,40.537,8.036z"/>
		<path fill="#8E8E8E" d="M41.717,7.7h0.5l0.439,1.225c0.066,0.174,0.111,0.338,0.133,0.492h0.016
			c0.012-0.072,0.033-0.159,0.064-0.261s0.197-0.587,0.496-1.456h0.496l-0.924,2.447c-0.168,0.449-0.448,0.674-0.84,0.674
			c-0.102,0-0.201-0.011-0.297-0.033v-0.363c0.069,0.016,0.148,0.023,0.236,0.023c0.221,0,0.377-0.128,0.467-0.385l0.08-0.203
			L41.717,7.7z"/>
	</g>
</g>
</svg>
